<?xml version="1.0" encoding="utf-8"?>
<!-- Generator: Adobe Illustrator 27.5.0, SVG Export Plug-In . SVG Version: 6.00 Build 0)  -->
<svg version="1.1" id="Layer_1" xmlns="http://www.w3.org/2000/svg" xmlns:xlink="http://www.w3.org/1999/xlink" x="0px" y="0px"
	 viewBox="0 0 2000 2000" style="enable-background:new 0 0 2000 2000;" xml:space="preserve">
<path style="fill:#F5D042;" d="M1324.628,380.856c18.719,7.719,49.603,28.369,68.069,39.887
	c293.194,182.913,407.444,529.506,299.909,851.234c-11.662,34.897-42.794,119.425-65.356,141.259
	c-18.559-52.231-29.459-85.025-66.897-130.609c15.622-22.469,21.916-51.359,29.3-77.294
	c63.15-221.744,1.625-466.184-181.622-612.797c-20.316-16.256-41.856-32.503-65.006-44.475
	C1348.653,483.997,1344.563,441.5,1324.628,380.856z"/>
<path style="fill:#F5D042;" d="M719.369,367.209c-47.256,71.209-57.447,92.487-56.119,180.137
	C429.484,684.89,333.109,970.128,415.956,1224.759c6.341,19.484,12.534,42.931,24.603,59.713
	c-34.781,41.969-53.784,78.759-68.047,131.162c-17.347-38.066-37.366-74.65-52.631-113.678
	C174.369,929.919,347.856,512.393,719.369,367.209z"/>
<path style="fill:#0A174E;" d="M719.369,367.209c51.684-69.626,136.213-111.507,220.65-123.951
	c94.556-13.934,249.347-3.163,328.413,55.984c28.819,21.56,43.438,48.792,56.197,81.613
	c19.934,60.644,24.025,103.141,18.397,167.206c-2.859,27.912-18.344,107.478-35.994,127.569
	c-65.063,10.234-31.016-113.059-73.681-159.122c-40.434-43.647-78.203,0.809-114.694,22.722
	c-71.359,42.847-162.441,37.722-237.972,8.369c-23.963-9.313-46.531-21.75-72.878-22.459
	c-85.022-2.294-69.653,101.331-113.387,141.253c-19.034-27.941-28.119-85.372-31.169-119.047
	C661.922,459.697,672.112,438.419,719.369,367.209z"/>
<path style="fill:#F5D042;" d="M694.419,666.393c43.734-39.922,28.366-143.547,113.387-141.253
	c26.347,0.709,48.916,13.147,72.878,22.459c75.531,29.353,166.612,34.478,237.972-8.369c36.491-21.912,74.259-66.369,114.694-22.722
	c42.666,46.062,8.619,169.356,73.681,159.122c69.225,17.716,64.969,116.613,4.613,141.838
	c-26.553,77.244-85.013,179.641-147.544,235.809c-10.056,5.197-18.516,16.575-27.238,24
	c-71.106,60.541-179.853,67.753-254.641,8.775c-15.494-12.219-28.406-29.084-45.281-39.322
	C807.728,1033.078,742.684,919.19,728.2,890.5c-11.066-21.919-21.472-46.063-34.85-66.553
	c-19.731-30.228-56.809-38.35-50.691-92.462c4.112-36.372,25.891-44.116,51.053-64.509L694.419,666.393z"/>
<path style="fill:#0A174E;" d="M836.941,1046.731c16.875,10.237,29.787,27.103,45.281,39.322
	c74.788,58.978,183.534,51.766,254.641-8.775c8.722-7.425,17.181-18.803,27.238-24c0.122,14.637,0.128,29.287,0.425,43.919
	c27.609,9.309,54.162,21.331,81.194,32.131l123.909,48.25c89.925,34.763,120.212,31.969,190.725,105.05
	c37.438,45.584,48.338,78.378,66.897,130.609c40.497,132.041-29.012,158.363-131.784,201.956
	c-65.847,27.931-128.225,57.531-197.072,78.403c-282.578,85.666-519.744,44.941-778.722-72.025
	c-29.906-13.509-62.303-23.741-91.187-39.134c-62.169-33.137-76.613-103.6-55.972-166.803
	c14.262-52.403,33.266-89.194,68.047-131.162c48.459-59.178,94.231-73.287,161.944-98.1
	c62.181-22.784,123.728-47.319,185.203-71.938c15.244-6.106,31.413-14.019,47.491-17.431l0.678-1.175
	C837.694,1084.356,835.987,1061.265,836.941,1046.731z"/>
<path style="fill:#00E053;" d="M991.278,1454.403c94.459-11.306,118.872,122.638,18.719,145.094
	C923.284,1616.3,888.616,1470.422,991.278,1454.403z"/>
<path style="fill:#58FE73;" d="M997.603,1469.065c65.831-2.303,60.822,90.697,3.281,93.762
	C935.647,1562.509,934.353,1476.994,997.603,1469.065z"/>
<path style="fill:#F5D042;" d="M836.941,1046.731c16.875,10.237,29.787,27.103,45.281,39.322
	c74.788,58.978,183.534,51.766,254.641-8.775c8.722-7.425,17.181-18.803,27.238-24c0.122,14.637,0.128,29.287,0.425,43.919
	l-0.425,5.05c-3.469,97.997,1.494,98.988-87.516,160.856l-76.025,52.331l-81.256-53.969
	c-80.459-53.716-84.591-62.494-84.106-164.463l0.678-1.175C837.694,1084.356,835.987,1061.265,836.941,1046.731z"/>
<path style="fill:#DCB60B;" d="M836.941,1046.731c16.875,10.237,29.787,27.103,45.281,39.322
	c74.788,58.978,183.534,51.766,254.641-8.775c8.722-7.425,17.181-18.803,27.238-24c0.122,14.637,0.128,29.287,0.425,43.919
	l-0.425,5.05c-8.784,6.625-16.578,15.378-24.609,22.981c-70.697,66.925-197.119,69.528-270.009,5.653
	c-9.066-7.944-24.941-31.722-33.606-35.053C837.694,1084.356,835.987,1061.265,836.941,1046.731z"/>
</svg>
